<svg version="1.0" xmlns="http://www.w3.org/2000/svg" width="1681.333" height="1706.667" viewBox="0 0 1261 1280"><path d="M613 143.1c-89.3 6.1-163.3 29.3-230.5 72.1-59.5 38-111 87.5-151.1 145.4-26.7 38.7-50 85.2-64.7 129.5-18.4 55.2-27 116.6-23.8 170.2.7 11.6 2.1 28.1 3.2 36.7 18.4 146.7 99.9 278.2 223.4 360.4 35.2 23.4 69.4 40.8 109.5 55.4 25.9 9.5 58.7 18.2 77.9 20.7 56.2 7.4 152.5 4.8 208.6-5.6 26.4-4.9 70.6-20.9 114.4-41.4 18.7-8.7 28.8-14.6 38.6-22.5 4.4-3.6 13.2-10 19.5-14.2 6.4-4.3 15.9-11.7 21.2-16.5 27.3-24.7 68.8-75.4 92.1-112.3 8.9-14.1 27.9-52.1 35.5-71 24.1-59.9 31.9-117.9 31-229.8-.4-47-.5-47.9-3.2-61.7-1.5-7.7-3-14.3-3.5-14.8-.4-.4-105.5-.6-233.7-.5l-232.9.3.3 22c.6 51.7 2.5 150 3.1 162l.6 13 69 .7c108.1 1.1 170 3 182.5 5.7l3.5.7-.1 5.6c-.4 18.9-28.3 73-51.3 99.5-33.5 38.6-94.3 69.1-157.6 79.1-26.8 4.3-48.1 5.1-73.1 2.7-69.7-6.7-139.9-41.8-186.8-93.3-39.8-43.8-63-93.6-72.9-156.2-1.8-11.6-2.1-17.9-2.2-45 0-33.6.7-40.9 6-68.1 7.7-39 24.7-75.1 51.5-109.9 9.6-12.3 35.6-38.5 49-49 35.8-28.4 80.4-50.1 122.2-59.4 51-11.4 94.1-9.3 141 7 37.5 13.1 72.1 31.9 93.1 50.6 5 4.6 10 8.9 11 9.7 1.6 1.3 5.6-2.4 44.8-41.5C941 316.8 976 278.8 976 273.2c0-6.4-30.9-31.9-66-54.2-51.9-33.2-97.6-52.4-154.5-65-43.2-9.6-99.3-13.9-142.5-10.9z" fill="currentColor"/></svg>