<?xml version="1.0" encoding="UTF-8" standalone="no"?>
<svg
   xmlns:dc="http://purl.org/dc/elements/1.1/"
   xmlns:cc="http://creativecommons.org/ns#"
   xmlns:rdf="http://www.w3.org/1999/02/22-rdf-syntax-ns#"
   xmlns:svg="http://www.w3.org/2000/svg"
   xmlns="http://www.w3.org/2000/svg"
   xmlns:sodipodi="http://sodipodi.sourceforge.net/DTD/sodipodi-0.dtd"
   xmlns:inkscape="http://www.inkscape.org/namespaces/inkscape"
   width="512"
   height="512"
   viewBox="0 0 512 512"
   id="svg2"
   version="1.1"
   inkscape:version="0.48.4 r9939"
   sodipodi:docname="ya.svg">
  <metadata
     id="metadata12">
    <rdf:RDF>
      <cc:Work
         rdf:about="">
        <dc:format>image/svg+xml</dc:format>
        <dc:type
           rdf:resource="http://purl.org/dc/dcmitype/StillImage" />
      </cc:Work>
    </rdf:RDF>
  </metadata>
  <defs
     id="defs10" />
  <sodipodi:namedview
     pagecolor="#ffffff"
     bordercolor="#666666"
     borderopacity="1"
     objecttolerance="10"
     gridtolerance="10"
     guidetolerance="10"
     inkscape:pageopacity="0"
     inkscape:pageshadow="2"
     inkscape:window-width="578"
     inkscape:window-height="639"
     id="namedview8"
     showgrid="false"
     inkscape:zoom="0.32"
     inkscape:cx="151.01031"
     inkscape:cy="224.36877"
     inkscape:window-x="239"
     inkscape:window-y="413"
     inkscape:window-maximized="0"
     inkscape:current-layer="svg2" />
  <title
     id="title4">Layer 1</title>
  <rect
     style="fill:#ffffff;fill-opacity:1;stroke:none"
     id="rect3763"
     width="21.186441"
     height="29.661016"
     x="148.30508"
     y="-687.15253" />
  <path
     d="M 324.45676,277.52469 H 292.3403 c -50.44204,0 -99.35915,-27.59915 -99.35915,-96.60261 0,-71.88637 45.85584,-101.20534 92.47908,-101.20534 h 38.99605 v 197.80795 z m 50.442,-234.60523 h -87.14517 c -85.5943,0 -158.21191,48.8753 -158.21191,143.75377 0,56.92587 35.17252,98.89814 97.82853,119.59858 L 110.44769,464.97492 c -3.8188,5.17888 0,9.19468 6.09655,9.19468 h 54.26604 c 4.58672,0 7.64753,-1.148 9.17296,-4.0158 L 286.22249,314.3185 h 38.23331 v 155.8353 c 0,1.71982 2.29332,4.0158 5.32861,4.0158 h 47.40675 c 4.58671,0 6.11736,-1.72371 6.11736,-4.58765 V 48.67406 c 0,-4.034775 -3.06128,-5.7546 -8.41024,-5.7546"
     id="path6"
     inkscape:connector-curvature="0"
     style="fill:#ff0000" />
</svg>
